<?xml version="1.0" encoding="UTF-8"?>
<svg version="1.1" xmlns="http://www.w3.org/2000/svg" width="300" height="430">
<path d="M0 0 C0.74892014 -0.0049649 1.49784027 -0.00992981 2.26945496 -0.01504517 C4.73433372 -0.02958443 7.19914799 -0.03645727 9.6640625 -0.04199219 C10.93695633 -0.04623325 10.93695633 -0.04623325 12.23556519 -0.05056 C16.73207914 -0.06552425 21.22856128 -0.07476941 25.72509766 -0.07910156 C30.33324029 -0.08456229 34.94108389 -0.10854724 39.5491333 -0.13707352 C43.12344158 -0.15585385 46.69768028 -0.16091375 50.27203369 -0.16243744 C51.96862409 -0.16543316 53.6652142 -0.17335518 55.36175537 -0.18662262 C83.28106717 -0.38926279 83.28106717 -0.38926279 93.4765625 9.22363281 C98.00568111 16.56392849 98.77798008 25.27102209 98.9765625 33.72363281 C99.02562744 35.29963257 99.02562744 35.29963257 99.07568359 36.9074707 C99.4042953 49.63378485 99.39262171 62.36888074 99.4140625 75.09863281 C99.41683197 76.20248322 99.41960144 77.30633362 99.42245483 78.44363403 C99.42831795 81.65028179 99.42642797 84.85682829 99.421875 88.06347656 C99.42384384 89.01797699 99.42581268 89.97247742 99.42784119 90.9559021 C99.35284113 113.16786987 99.35284113 113.16786987 91.68359375 122.01269531 C81.85423773 131.14477436 67.40612446 131.37647054 54.69677734 131.10595703 C51.99694327 130.99884053 49.29966002 130.86793405 46.6015625 130.72363281 C14.7398343 128.5130324 14.7398343 128.5130324 -14.7109375 139.16113281 C-15.7143917 140.15766664 -16.71543181 141.15665861 -17.7109375 142.16113281 C-18.3709375 142.16113281 -19.0309375 142.16113281 -19.7109375 142.16113281 C-19.9790625 142.72316406 -20.2471875 143.28519531 -20.5234375 143.86425781 C-21.78948077 146.31305204 -23.23022893 148.58642036 -24.7109375 150.91113281 C-31.94143001 162.94436122 -30.84411443 177.12133553 -30.75553703 190.71736908 C-30.73794614 193.51123077 -30.72778395 196.3050337 -30.71961975 199.09893799 C-30.69534717 207.03639269 -30.65980029 214.97376802 -30.61499023 222.91113281 C-30.58798851 227.78561128 -30.57108978 232.66004445 -30.56012154 237.53458405 C-30.55397441 239.37631149 -30.54405 241.21803084 -30.53004265 243.05971527 C-30.28510253 275.55493373 -30.28510253 275.55493373 -39.65234375 286.41113281 C-49.17596366 295.67919942 -60.7409973 297.30653687 -73.50488281 297.32226562 C-74.47480667 297.32723053 -75.44473053 297.33219543 -76.44404602 297.33731079 C-79.64239216 297.35187637 -82.84068869 297.35872513 -86.0390625 297.36425781 C-88.27097575 297.37001393 -90.502889 297.3757716 -92.73480225 297.38153076 C-97.41190826 297.39202485 -102.08899716 297.39787792 -106.76611328 297.40136719 C-112.74224292 297.40684811 -118.71814429 297.4308745 -124.69420242 297.45933914 C-129.30461272 297.47801579 -133.91496859 297.48317381 -138.52541351 297.48470306 C-140.7277018 297.48771882 -142.92998937 297.49571074 -145.1322403 297.50888824 C-148.22147208 297.52605363 -151.31015318 297.52404285 -154.39941406 297.51757812 C-155.29845963 297.52679291 -156.19750519 297.53600769 -157.12379456 297.54550171 C-168.29884265 297.47270352 -177.51782155 293.96258925 -185.6875 286.30957031 C-191.69839789 279.88941981 -195.81364423 271.96356608 -195.85137939 263.04040527 C-195.85708954 262.22766144 -195.86279968 261.4149176 -195.86868286 260.57754517 C-195.86980072 259.69440643 -195.87091858 258.8112677 -195.87207031 257.90136719 C-195.87703522 256.96420868 -195.88200012 256.02705017 -195.88711548 255.06149292 C-195.90172478 251.95928206 -195.90853903 248.85712243 -195.9140625 245.75488281 C-195.91981739 243.59216308 -195.92557508 241.42944335 -195.93133545 239.26672363 C-195.94184361 234.72729251 -195.94768669 230.18787907 -195.95117188 225.6484375 C-195.95663941 219.85628818 -195.980631 214.06437597 -196.00914383 208.27230072 C-196.02785496 203.80077454 -196.03298043 199.32930432 -196.03450775 194.85774231 C-196.03751849 192.72409273 -196.04549311 190.59044376 -196.05869293 188.45683289 C-196.22715965 159.11847282 -196.22715965 159.11847282 -186.7109375 147.16113281 C-170.90443953 131.64734777 -145.82170096 135.06502058 -125.3359375 135.16894531 C-124.50823853 135.17277977 -123.68053955 135.17661423 -122.82775879 135.18056488 C-115.02357716 135.21758532 -107.21948944 135.26272405 -99.41552734 135.33251953 C-95.10659135 135.37042708 -90.79778672 135.39325736 -86.4887085 135.40682602 C-84.86859412 135.41479052 -83.24849572 135.4282682 -81.628479 135.44775772 C-66.91283449 135.62208049 -53.13874904 134.30307511 -41.8984375 123.84863281 C-32.35464676 113.5774862 -31.24960013 99.78152924 -31.48544312 86.3565712 C-31.52448646 84.10854872 -31.54346665 81.86107069 -31.55786133 79.61276245 C-31.59751997 74.03232427 -31.67010604 68.45241267 -31.74206543 62.87231445 C-31.80182702 58.13986832 -31.84850242 53.4076219 -31.87875366 48.67489243 C-31.89784444 46.48691555 -31.93534856 44.29979783 -31.97387695 42.11209106 C-32.10280988 30.49068241 -31.66888578 17.39324696 -23.7109375 8.16113281 C-16.61544218 1.04735013 -9.77543427 0.01571989 0 0 Z " fill="#3E4095" transform="translate(195.7109375,-0.1611328125)"/>

<path d="M0 0 C0.82657608 -0.00145523 1.65315216 -0.00291046 2.504776 -0.00440979 C5.19463686 -0.0066502 7.88437052 -0.00037863 10.57421875 0.0078125 C11.49624084 0.00969574 12.41826294 0.01157898 13.3682251 0.01351929 C25.71711737 0.04297409 38.06732344 0.12110534 50.41342163 0.39727783 C51.87380255 0.42882958 53.33428336 0.4561039 54.79483032 0.47869873 C65.43124996 0.65361184 76.16121993 1.05461956 85.26171875 7.1328125 C96.39804903 21.24974882 91.31548233 48.72836986 91.01977539 65.58154297 C90.95855372 69.08638095 90.91188331 72.59124989 90.86894512 76.09635353 C90.82488285 79.49667585 90.76716243 82.89673209 90.7109375 86.296875 C90.69624924 87.53869537 90.68156097 88.78051575 90.66642761 90.05996704 C90.47526204 99.79294926 90.09504021 109.03097714 84.26171875 117.1328125 C75.46159533 124.70501172 63.3712365 123.43035135 52.46875 123.3984375 C50.83363284 123.39978798 49.19851607 123.40173169 47.56340027 123.40423584 C44.14501096 123.40717324 40.72672664 123.40293701 37.30834961 123.39355469 C32.9660157 123.38220642 28.62393037 123.38869902 24.28160572 123.40069962 C20.90545344 123.40799468 17.52935814 123.40559482 14.15320396 123.40044403 C12.5543178 123.39912619 10.95542616 123.40068838 9.3565464 123.40540314 C-18.41034001 123.46928953 -18.41034001 123.46928953 -26.73828125 117.1328125 C-35.02934324 108.61766775 -33.91742339 95.57898983 -33.86328125 84.4453125 C-33.85989746 83.39093994 -33.85651367 82.33656738 -33.85302734 81.25024414 C-33.82922247 77.2108897 -33.78724263 73.17192271 -33.73828125 69.1328125 C-33.7218457 67.76243835 -33.7218457 67.76243835 -33.70507812 66.36437988 C-33.62608007 60.01932907 -33.52984043 53.6747417 -33.41888428 47.33016968 C-33.38200935 45.16829091 -33.34800243 43.00636119 -33.31695557 40.84439087 C-33.27130581 37.76190436 -33.21333461 34.67987291 -33.15234375 31.59765625 C-33.14078247 30.67659088 -33.12922119 29.75552551 -33.11730957 28.80654907 C-32.93926884 20.94197007 -32.38184681 13.01829561 -27.34765625 6.63671875 C-20.02663579 -0.2045261 -9.41848312 -0.02419708 0 0 Z M-9.73828125 26.1328125 C-9.73828125 50.2228125 -9.73828125 74.3128125 -9.73828125 99.1328125 C-1.61203125 99.1946875 6.51421875 99.2565625 14.88671875 99.3203125 C18.68937256 99.36128052 18.68937256 99.36128052 22.56884766 99.40307617 C45.96745613 99.84128771 45.96745613 99.84128771 65.77734375 88.69140625 C72.85033863 80.87276432 75.73805866 70.76690305 75.44921875 60.38671875 C74.5535444 49.61996664 70.36837646 40.39924082 62.26171875 33.1328125 C52.11328199 26.18544245 40.06824514 25.81775641 28.15234375 25.9375 C26.69610596 25.94052124 26.69610596 25.94052124 25.21044922 25.94360352 C21.64415645 25.95393008 18.07793196 25.9818505 14.51171875 26.0078125 C6.50921875 26.0490625 -1.49328125 26.0903125 -9.73828125 26.1328125 Z " fill="#414396" transform="translate(209.73828125,306.8671875)"/>

<path d="M0 0 C5.548125 -0.04125 11.09625 -0.0825 16.8125 -0.125 C18.53960205 -0.14320801 20.2667041 -0.16141602 22.04614258 -0.18017578 C46.06228445 -0.33023732 46.06228445 -0.33023732 55.53125 8.4140625 C61.5257746 14.93136541 61.39781061 22.1427702 61.24609375 30.55859375 C60.74587033 37.55378156 58.76559693 43.31132518 53.9296875 48.49609375 C45.86648466 54.78016884 34.80207997 55.17232421 25 55.09765625 C24.03900391 55.09614563 24.03900391 55.09614563 23.05859375 55.09460449 C20.70571049 55.08944221 18.35285311 55.07548205 16 55.0625 C10.72 55.041875 5.44 55.02125 0 55 C0 36.85 0 18.7 0 0 Z " fill="#404296" transform="translate(212,342)"/>

</svg>
